<svg width="38" height="37" viewBox="0 0 38 37" fill="none" xmlns="http://www.w3.org/2000/svg">
<g id="more-horizontal">
<rect x="1.8405" y="1.51824" width="34.4254" height="34.4254" rx="6.34152" stroke="#A6ADBB" stroke-width="1.81186"/>
<path id="Vector" d="M19.0533 20.2405C19.8872 20.2405 20.5632 19.5645 20.5632 18.7306C20.5632 17.8967 19.8872 17.2207 19.0533 17.2207C18.2195 17.2207 17.5435 17.8967 17.5435 18.7306C17.5435 19.5645 18.2195 20.2405 19.0533 20.2405Z" fill="#A6ADBB" stroke="#A6ADBB" stroke-width="1.81186" stroke-linecap="round" stroke-linejoin="round"/>
<path id="Vector_2" d="M28.1124 20.2405C28.9463 20.2405 29.6223 19.5645 29.6223 18.7306C29.6223 17.8967 28.9463 17.2207 28.1124 17.2207C27.2785 17.2207 26.6025 17.8967 26.6025 18.7306C26.6025 19.5645 27.2785 20.2405 28.1124 20.2405Z" fill="#A6ADBB" stroke="#A6ADBB" stroke-width="1.81186" stroke-linecap="round" stroke-linejoin="round"/>
<path id="Vector_3" d="M9.99426 20.2405C10.8281 20.2405 11.5041 19.5645 11.5041 18.7306C11.5041 17.8967 10.8281 17.2207 9.99426 17.2207C9.16037 17.2207 8.48438 17.8967 8.48438 18.7306C8.48438 19.5645 9.16037 20.2405 9.99426 20.2405Z" fill="#A6ADBB" stroke="#A6ADBB" stroke-width="1.81186" stroke-linecap="round" stroke-linejoin="round"/>
</g>
</svg>
